<?xml version="1.0" encoding="UTF-8" standalone="no"?>
<!DOCTYPE svg PUBLIC "-//W3C//DTD SVG 1.1//EN"
 "http://www.w3.org/Graphics/SVG/1.1/DTD/svg11.dtd">
<!-- Generated by graphviz version 2.44.1 (20200629.0846)
 -->
<!-- Title: idp_modules Pages: 1 -->
<svg width="510pt" height="375pt"
 viewBox="0.00 0.00 510.00 375.00" xmlns="http://www.w3.org/2000/svg" xmlns:xlink="http://www.w3.org/1999/xlink">
<g id="graph0" class="graph" transform="scale(1 1) rotate(0) translate(4 371)">
<title>idp_modules</title>
<polygon fill="white" stroke="transparent" points="-4,4 -4,-371 506,-371 506,4 -4,4"/>
<g id="clust1" class="cluster">
<title>cluster_sl</title>
<polygon fill="mintcream" stroke="black" points="8,-8 8,-82 494,-82 494,-8 8,-8"/>
<text text-anchor="middle" x="251" y="-68.4" font-family="Microsoft YaHei" font-size="12.00">IDP支持层</text>
</g>
<g id="clust2" class="cluster">
<title>cluster_md</title>
<polygon fill="lightcyan" stroke="black" points="123,-113 123,-359 299,-359 299,-113 123,-113"/>
<text text-anchor="middle" x="211" y="-345.4" font-family="Microsoft YaHei" font-size="12.00">可插拔模块集</text>
</g>
<!-- network_mgr -->
<g id="node1" class="node">
<title>network_mgr</title>
<path fill="skyblue" stroke="skyblue" d="M420.5,-16.5C420.5,-16.5 473.5,-16.5 473.5,-16.5 479.5,-16.5 485.5,-22.5 485.5,-28.5 485.5,-28.5 485.5,-40.5 485.5,-40.5 485.5,-46.5 479.5,-52.5 473.5,-52.5 473.5,-52.5 420.5,-52.5 420.5,-52.5 414.5,-52.5 408.5,-46.5 408.5,-40.5 408.5,-40.5 408.5,-28.5 408.5,-28.5 408.5,-22.5 414.5,-16.5 420.5,-16.5"/>
<text text-anchor="middle" x="447" y="-31.4" font-family="Microsoft YaHei" font-size="12.00">网络管理器</text>
</g>
<!-- log_mgr -->
<g id="node2" class="node">
<title>log_mgr</title>
<path fill="skyblue" stroke="skyblue" d="M325.5,-16.5C325.5,-16.5 378.5,-16.5 378.5,-16.5 384.5,-16.5 390.5,-22.5 390.5,-28.5 390.5,-28.5 390.5,-40.5 390.5,-40.5 390.5,-46.5 384.5,-52.5 378.5,-52.5 378.5,-52.5 325.5,-52.5 325.5,-52.5 319.5,-52.5 313.5,-46.5 313.5,-40.5 313.5,-40.5 313.5,-28.5 313.5,-28.5 313.5,-22.5 319.5,-16.5 325.5,-16.5"/>
<text text-anchor="middle" x="352" y="-31.4" font-family="Microsoft YaHei" font-size="12.00">日志管理器</text>
</g>
<!-- module_mgr -->
<g id="node3" class="node">
<title>module_mgr</title>
<path fill="skyblue" stroke="skyblue" d="M230.5,-16.5C230.5,-16.5 283.5,-16.5 283.5,-16.5 289.5,-16.5 295.5,-22.5 295.5,-28.5 295.5,-28.5 295.5,-40.5 295.5,-40.5 295.5,-46.5 289.5,-52.5 283.5,-52.5 283.5,-52.5 230.5,-52.5 230.5,-52.5 224.5,-52.5 218.5,-46.5 218.5,-40.5 218.5,-40.5 218.5,-28.5 218.5,-28.5 218.5,-22.5 224.5,-16.5 230.5,-16.5"/>
<text text-anchor="middle" x="257" y="-31.4" font-family="Microsoft YaHei" font-size="12.00">模块管理器</text>
</g>
<!-- conf_mgr -->
<g id="node4" class="node">
<title>conf_mgr</title>
<path fill="skyblue" stroke="skyblue" d="M135.5,-16.5C135.5,-16.5 188.5,-16.5 188.5,-16.5 194.5,-16.5 200.5,-22.5 200.5,-28.5 200.5,-28.5 200.5,-40.5 200.5,-40.5 200.5,-46.5 194.5,-52.5 188.5,-52.5 188.5,-52.5 135.5,-52.5 135.5,-52.5 129.5,-52.5 123.5,-46.5 123.5,-40.5 123.5,-40.5 123.5,-28.5 123.5,-28.5 123.5,-22.5 129.5,-16.5 135.5,-16.5"/>
<text text-anchor="middle" x="162" y="-31.4" font-family="Microsoft YaHei" font-size="12.00">配置管理器</text>
</g>
<!-- db_mgr -->
<g id="node5" class="node">
<title>db_mgr</title>
<path fill="skyblue" stroke="skyblue" d="M28.5,-16.5C28.5,-16.5 93.5,-16.5 93.5,-16.5 99.5,-16.5 105.5,-22.5 105.5,-28.5 105.5,-28.5 105.5,-40.5 105.5,-40.5 105.5,-46.5 99.5,-52.5 93.5,-52.5 93.5,-52.5 28.5,-52.5 28.5,-52.5 22.5,-52.5 16.5,-46.5 16.5,-40.5 16.5,-40.5 16.5,-28.5 16.5,-28.5 16.5,-22.5 22.5,-16.5 28.5,-16.5"/>
<text text-anchor="middle" x="61" y="-31.4" font-family="Microsoft YaHei" font-size="12.00">数据库管理器</text>
</g>
<!-- mod_dev -->
<g id="node6" class="node">
<title>mod_dev</title>
<polygon fill="#76ee00" stroke="#76ee00" points="201.5,-207.5 201.5,-243.5 290.5,-243.5 290.5,-207.5 201.5,-207.5"/>
<text text-anchor="middle" x="246" y="-222.4" font-family="Microsoft YaHei" font-size="12.00">开发支持模块</text>
</g>
<!-- mod_dev&#45;&gt;module_mgr -->
<g id="edge5" class="edge">
<title>mod_dev&#45;&gt;module_mgr</title>
<path fill="none" stroke="yellowgreen" d="M247,-207.39C249.08,-171.5 253.9,-88.68 256,-52.7"/>
<text text-anchor="middle" x="269" y="-136.4" font-family="Microsoft YaHei" font-size="12.00">安装...</text>
</g>
<!-- mod_dm -->
<g id="node7" class="node">
<title>mod_dm</title>
<polygon fill="#76ee00" stroke="#76ee00" points="131.5,-121.5 131.5,-157.5 220.5,-157.5 220.5,-121.5 131.5,-121.5"/>
<text text-anchor="middle" x="176" y="-136.4" font-family="Microsoft YaHei" font-size="12.00">数据建模模块</text>
</g>
<!-- mod_dev&#45;&gt;mod_dm -->
<g id="edge4" class="edge">
<title>mod_dev&#45;&gt;mod_dm</title>
<path fill="none" stroke="black" d="M226.41,-207.16C220.55,-201.6 214.29,-195.25 209,-189 203.05,-181.96 197.17,-173.83 192.07,-166.26"/>
<polygon fill="black" stroke="black" points="194.89,-164.18 186.48,-157.74 189.04,-168.02 194.89,-164.18"/>
<text text-anchor="middle" x="226" y="-179.4" font-family="Microsoft YaHei" font-size="12.00">依赖...</text>
</g>
<!-- mod_dm&#45;&gt;module_mgr -->
<g id="edge6" class="edge">
<title>mod_dm&#45;&gt;module_mgr</title>
<path fill="none" stroke="yellowgreen" d="M187.1,-121.07C193.28,-111.67 201.26,-99.98 209,-90 219.05,-77.05 231.27,-63.2 240.86,-52.7"/>
<text text-anchor="middle" x="226" y="-93.4" font-family="Microsoft YaHei" font-size="12.00">安装...</text>
</g>
<!-- mod_dp -->
<g id="node8" class="node">
<title>mod_dp</title>
<polygon fill="#76ee00" stroke="#76ee00" points="201.5,-293.5 201.5,-329.5 290.5,-329.5 290.5,-293.5 201.5,-293.5"/>
<text text-anchor="middle" x="246" y="-308.4" font-family="Microsoft YaHei" font-size="12.00">部署发布模块</text>
</g>
<!-- mod_dp&#45;&gt;module_mgr -->
<g id="edge3" class="edge">
<title>mod_dp&#45;&gt;module_mgr</title>
<path fill="none" stroke="yellowgreen" d="M267.33,-293.32C280.28,-281.19 295.23,-263.65 300,-244 307.36,-213.71 293.72,-127.31 290,-113 284.37,-91.34 273.68,-67.89 265.99,-52.53"/>
<text text-anchor="middle" x="317" y="-179.4" font-family="Microsoft YaHei" font-size="12.00">安装...</text>
</g>
<!-- mod_dp&#45;&gt;mod_dev -->
<g id="edge1" class="edge">
<title>mod_dp&#45;&gt;mod_dev</title>
<path fill="none" stroke="black" d="M246,-293.1C246,-281.76 246,-266.73 246,-253.82"/>
<polygon fill="black" stroke="black" points="249.5,-253.6 246,-243.6 242.5,-253.6 249.5,-253.6"/>
<text text-anchor="middle" x="263" y="-265.4" font-family="Microsoft YaHei" font-size="12.00">依赖...</text>
</g>
<!-- mod_dp&#45;&gt;mod_dm -->
<g id="edge2" class="edge">
<title>mod_dp&#45;&gt;mod_dm</title>
<path fill="none" stroke="black" d="M210.14,-293.35C191.19,-282.18 169.7,-265.64 159,-244 146.96,-219.65 154.72,-188.54 163.3,-166.81"/>
<polygon fill="black" stroke="black" points="166.55,-168.12 167.23,-157.55 160.1,-165.39 166.55,-168.12"/>
<text text-anchor="middle" x="176" y="-222.4" font-family="Microsoft YaHei" font-size="12.00">依赖...</text>
</g>
</g>
</svg>
