<?xml version="1.0" encoding="UTF-8" standalone="no"?>
<!DOCTYPE svg PUBLIC "-//W3C//DTD SVG 1.1//EN"
 "http://www.w3.org/Graphics/SVG/1.1/DTD/svg11.dtd">
<!-- Generated by graphviz version 2.44.1 (20200629.0846)
 -->
<!-- Title: idp_modules Pages: 1 -->
<svg width="770pt" height="270pt"
 viewBox="0.00 0.00 769.50 270.00" xmlns="http://www.w3.org/2000/svg" xmlns:xlink="http://www.w3.org/1999/xlink">
<g id="graph0" class="graph" transform="scale(1 1) rotate(0) translate(4 266)">
<title>idp_modules</title>
<polygon fill="white" stroke="transparent" points="-4,4 -4,-266 765.5,-266 765.5,4 -4,4"/>
<g id="clust1" class="cluster">
<title>cluster_sl</title>
<polygon fill="mintcream" stroke="black" points="8,-180 8,-254 494,-254 494,-180 8,-180"/>
<text text-anchor="middle" x="251" y="-240.4" font-family="Microsoft YaHei" font-size="12.00">IDP支持层</text>
</g>
<g id="clust2" class="cluster">
<title>cluster_md</title>
<polygon fill="lightcyan" stroke="black" points="502,-8 502,-254 678,-254 678,-8 502,-8"/>
<text text-anchor="middle" x="590" y="-240.4" font-family="Microsoft YaHei" font-size="12.00">可插拔模块集</text>
</g>
<!-- network_mgr -->
<g id="node1" class="node">
<title>network_mgr</title>
<path fill="skyblue" stroke="skyblue" d="M420.5,-188.5C420.5,-188.5 473.5,-188.5 473.5,-188.5 479.5,-188.5 485.5,-194.5 485.5,-200.5 485.5,-200.5 485.5,-212.5 485.5,-212.5 485.5,-218.5 479.5,-224.5 473.5,-224.5 473.5,-224.5 420.5,-224.5 420.5,-224.5 414.5,-224.5 408.5,-218.5 408.5,-212.5 408.5,-212.5 408.5,-200.5 408.5,-200.5 408.5,-194.5 414.5,-188.5 420.5,-188.5"/>
<text text-anchor="middle" x="447" y="-203.4" font-family="Microsoft YaHei" font-size="12.00">网络管理器</text>
</g>
<!-- log_mgr -->
<g id="node2" class="node">
<title>log_mgr</title>
<path fill="skyblue" stroke="skyblue" d="M325.5,-188.5C325.5,-188.5 378.5,-188.5 378.5,-188.5 384.5,-188.5 390.5,-194.5 390.5,-200.5 390.5,-200.5 390.5,-212.5 390.5,-212.5 390.5,-218.5 384.5,-224.5 378.5,-224.5 378.5,-224.5 325.5,-224.5 325.5,-224.5 319.5,-224.5 313.5,-218.5 313.5,-212.5 313.5,-212.5 313.5,-200.5 313.5,-200.5 313.5,-194.5 319.5,-188.5 325.5,-188.5"/>
<text text-anchor="middle" x="352" y="-203.4" font-family="Microsoft YaHei" font-size="12.00">日志管理器</text>
</g>
<!-- module_mgr -->
<g id="node3" class="node">
<title>module_mgr</title>
<path fill="skyblue" stroke="skyblue" d="M230.5,-188.5C230.5,-188.5 283.5,-188.5 283.5,-188.5 289.5,-188.5 295.5,-194.5 295.5,-200.5 295.5,-200.5 295.5,-212.5 295.5,-212.5 295.5,-218.5 289.5,-224.5 283.5,-224.5 283.5,-224.5 230.5,-224.5 230.5,-224.5 224.5,-224.5 218.5,-218.5 218.5,-212.5 218.5,-212.5 218.5,-200.5 218.5,-200.5 218.5,-194.5 224.5,-188.5 230.5,-188.5"/>
<text text-anchor="middle" x="257" y="-203.4" font-family="Microsoft YaHei" font-size="12.00">模块管理器</text>
</g>
<!-- conf_mgr -->
<g id="node4" class="node">
<title>conf_mgr</title>
<path fill="skyblue" stroke="skyblue" d="M135.5,-188.5C135.5,-188.5 188.5,-188.5 188.5,-188.5 194.5,-188.5 200.5,-194.5 200.5,-200.5 200.5,-200.5 200.5,-212.5 200.5,-212.5 200.5,-218.5 194.5,-224.5 188.5,-224.5 188.5,-224.5 135.5,-224.5 135.5,-224.5 129.5,-224.5 123.5,-218.5 123.5,-212.5 123.5,-212.5 123.5,-200.5 123.5,-200.5 123.5,-194.5 129.5,-188.5 135.5,-188.5"/>
<text text-anchor="middle" x="162" y="-203.4" font-family="Microsoft YaHei" font-size="12.00">配置管理器</text>
</g>
<!-- db_mgr -->
<g id="node5" class="node">
<title>db_mgr</title>
<path fill="skyblue" stroke="skyblue" d="M28.5,-188.5C28.5,-188.5 93.5,-188.5 93.5,-188.5 99.5,-188.5 105.5,-194.5 105.5,-200.5 105.5,-200.5 105.5,-212.5 105.5,-212.5 105.5,-218.5 99.5,-224.5 93.5,-224.5 93.5,-224.5 28.5,-224.5 28.5,-224.5 22.5,-224.5 16.5,-218.5 16.5,-212.5 16.5,-212.5 16.5,-200.5 16.5,-200.5 16.5,-194.5 22.5,-188.5 28.5,-188.5"/>
<text text-anchor="middle" x="61" y="-203.4" font-family="Microsoft YaHei" font-size="12.00">数据库管理器</text>
</g>
<!-- mod_dev -->
<g id="node6" class="node">
<title>mod_dev</title>
<polygon fill="#76ee00" stroke="#76ee00" points="510.5,-102.5 510.5,-138.5 599.5,-138.5 599.5,-102.5 510.5,-102.5"/>
<text text-anchor="middle" x="555" y="-117.4" font-family="Microsoft YaHei" font-size="12.00">开发支持模块</text>
</g>
<!-- mod_dm -->
<g id="node7" class="node">
<title>mod_dm</title>
<polygon fill="#76ee00" stroke="#76ee00" points="562.5,-16.5 562.5,-52.5 651.5,-52.5 651.5,-16.5 562.5,-16.5"/>
<text text-anchor="middle" x="607" y="-31.4" font-family="Microsoft YaHei" font-size="12.00">数据建模模块</text>
</g>
<!-- mod_dev&#45;&gt;mod_dm -->
<g id="edge3" class="edge">
<title>mod_dev&#45;&gt;mod_dm</title>
<path fill="none" stroke="black" d="M565.77,-102.1C573.07,-90.3 582.85,-74.52 591.04,-61.28"/>
<polygon fill="black" stroke="black" points="594.13,-62.94 596.42,-52.6 588.18,-59.26 594.13,-62.94"/>
<text text-anchor="middle" x="602" y="-74.4" font-family="Microsoft YaHei" font-size="12.00">依赖...</text>
</g>
<!-- mod_dp -->
<g id="node8" class="node">
<title>mod_dp</title>
<polygon fill="#76ee00" stroke="#76ee00" points="544.5,-188.5 544.5,-224.5 633.5,-224.5 633.5,-188.5 544.5,-188.5"/>
<text text-anchor="middle" x="589" y="-203.4" font-family="Microsoft YaHei" font-size="12.00">部署发布模块</text>
</g>
<!-- mod_dp&#45;&gt;mod_dev -->
<g id="edge1" class="edge">
<title>mod_dp&#45;&gt;mod_dev</title>
<path fill="none" stroke="black" d="M581.96,-188.1C577.27,-176.53 571.04,-161.12 565.74,-148.04"/>
<polygon fill="black" stroke="black" points="568.92,-146.55 561.92,-138.6 562.43,-149.18 568.92,-146.55"/>
<text text-anchor="middle" x="592" y="-160.4" font-family="Microsoft YaHei" font-size="12.00">依赖...</text>
</g>
<!-- mod_dp&#45;&gt;mod_dm -->
<g id="edge2" class="edge">
<title>mod_dp&#45;&gt;mod_dm</title>
<path fill="none" stroke="black" d="M603,-188.36C606.85,-182.81 610.62,-176.42 613,-170 626.38,-133.92 620.77,-122.42 623,-84 623.33,-78.23 624.21,-76.65 623,-71 622.35,-67.99 621.43,-64.93 620.35,-61.93"/>
<polygon fill="black" stroke="black" points="623.58,-60.58 616.51,-52.69 617.12,-63.27 623.58,-60.58"/>
<text text-anchor="middle" x="640" y="-117.4" font-family="Microsoft YaHei" font-size="12.00">依赖...</text>
</g>
<!-- cluster_md -->
<g id="node9" class="node">
<title>cluster_md</title>
<polygon fill="none" stroke="black" points="686.5,-188.5 686.5,-224.5 761.5,-224.5 761.5,-188.5 686.5,-188.5"/>
<text text-anchor="middle" x="724" y="-203.4" font-family="Microsoft YaHei" font-size="12.00">cluster_md</text>
</g>
<!-- cluster_sl -->
<g id="node10" class="node">
<title>cluster_sl</title>
<polygon fill="none" stroke="black" points="690,-102.5 690,-138.5 758,-138.5 758,-102.5 690,-102.5"/>
<text text-anchor="middle" x="724" y="-117.4" font-family="Microsoft YaHei" font-size="12.00">cluster_sl</text>
</g>
<!-- cluster_md&#45;&gt;cluster_sl -->
<g id="edge4" class="edge">
<title>cluster_md&#45;&gt;cluster_sl</title>
<path fill="none" stroke="yellowgreen" d="M724,-188.1C724,-173.58 724,-153.02 724,-138.6"/>
<text text-anchor="middle" x="741" y="-160.4" font-family="Microsoft YaHei" font-size="12.00">安装...</text>
</g>
</g>
</svg>
