<?xml version="1.0" encoding="UTF-8" standalone="no"?>
<!DOCTYPE svg PUBLIC "-//W3C//DTD SVG 1.1//EN"
 "http://www.w3.org/Graphics/SVG/1.1/DTD/svg11.dtd">
<!-- Generated by graphviz version 2.44.1 (20200629.0846)
 -->
<!-- Title: idp_modules Pages: 1 -->
<svg width="510pt" height="363pt"
 viewBox="0.00 0.00 510.00 363.00" xmlns="http://www.w3.org/2000/svg" xmlns:xlink="http://www.w3.org/1999/xlink">
<g id="graph0" class="graph" transform="scale(1 1) rotate(0) translate(4 359)">
<title>idp_modules</title>
<polygon fill="white" stroke="transparent" points="-4,4 -4,-359 506,-359 506,4 -4,4"/>
<g id="clust1" class="cluster">
<title>cluster_sl</title>
<polygon fill="mintcream" stroke="black" points="8,-8 8,-82 494,-82 494,-8 8,-8"/>
<text text-anchor="middle" x="251" y="-68.4" font-family="Microsoft YaHei" font-size="12.00">IDP支持层</text>
</g>
<g id="clust2" class="cluster">
<title>cluster_md</title>
<polygon fill="lightcyan" stroke="black" points="169,-101 169,-347 345,-347 345,-101 169,-101"/>
<text text-anchor="middle" x="257" y="-333.4" font-family="Microsoft YaHei" font-size="12.00">可插拔模块集</text>
</g>
<!-- network_mgr -->
<g id="node1" class="node">
<title>network_mgr</title>
<path fill="skyblue" stroke="skyblue" d="M420.5,-16.5C420.5,-16.5 473.5,-16.5 473.5,-16.5 479.5,-16.5 485.5,-22.5 485.5,-28.5 485.5,-28.5 485.5,-40.5 485.5,-40.5 485.5,-46.5 479.5,-52.5 473.5,-52.5 473.5,-52.5 420.5,-52.5 420.5,-52.5 414.5,-52.5 408.5,-46.5 408.5,-40.5 408.5,-40.5 408.5,-28.5 408.5,-28.5 408.5,-22.5 414.5,-16.5 420.5,-16.5"/>
<text text-anchor="middle" x="447" y="-31.4" font-family="Microsoft YaHei" font-size="12.00">网络管理器</text>
</g>
<!-- log_mgr -->
<g id="node2" class="node">
<title>log_mgr</title>
<path fill="skyblue" stroke="skyblue" d="M325.5,-16.5C325.5,-16.5 378.5,-16.5 378.5,-16.5 384.5,-16.5 390.5,-22.5 390.5,-28.5 390.5,-28.5 390.5,-40.5 390.5,-40.5 390.5,-46.5 384.5,-52.5 378.5,-52.5 378.5,-52.5 325.5,-52.5 325.5,-52.5 319.5,-52.5 313.5,-46.5 313.5,-40.5 313.5,-40.5 313.5,-28.5 313.5,-28.5 313.5,-22.5 319.5,-16.5 325.5,-16.5"/>
<text text-anchor="middle" x="352" y="-31.4" font-family="Microsoft YaHei" font-size="12.00">日志管理器</text>
</g>
<!-- module_mgr -->
<g id="node3" class="node">
<title>module_mgr</title>
<path fill="skyblue" stroke="skyblue" d="M230.5,-16.5C230.5,-16.5 283.5,-16.5 283.5,-16.5 289.5,-16.5 295.5,-22.5 295.5,-28.5 295.5,-28.5 295.5,-40.5 295.5,-40.5 295.5,-46.5 289.5,-52.5 283.5,-52.5 283.5,-52.5 230.5,-52.5 230.5,-52.5 224.5,-52.5 218.5,-46.5 218.5,-40.5 218.5,-40.5 218.5,-28.5 218.5,-28.5 218.5,-22.5 224.5,-16.5 230.5,-16.5"/>
<text text-anchor="middle" x="257" y="-31.4" font-family="Microsoft YaHei" font-size="12.00">模块管理器</text>
</g>
<!-- conf_mgr -->
<g id="node4" class="node">
<title>conf_mgr</title>
<path fill="skyblue" stroke="skyblue" d="M135.5,-16.5C135.5,-16.5 188.5,-16.5 188.5,-16.5 194.5,-16.5 200.5,-22.5 200.5,-28.5 200.5,-28.5 200.5,-40.5 200.5,-40.5 200.5,-46.5 194.5,-52.5 188.5,-52.5 188.5,-52.5 135.5,-52.5 135.5,-52.5 129.5,-52.5 123.5,-46.5 123.5,-40.5 123.5,-40.5 123.5,-28.5 123.5,-28.5 123.5,-22.5 129.5,-16.5 135.5,-16.5"/>
<text text-anchor="middle" x="162" y="-31.4" font-family="Microsoft YaHei" font-size="12.00">配置管理器</text>
</g>
<!-- db_mgr -->
<g id="node5" class="node">
<title>db_mgr</title>
<path fill="skyblue" stroke="skyblue" d="M28.5,-16.5C28.5,-16.5 93.5,-16.5 93.5,-16.5 99.5,-16.5 105.5,-22.5 105.5,-28.5 105.5,-28.5 105.5,-40.5 105.5,-40.5 105.5,-46.5 99.5,-52.5 93.5,-52.5 93.5,-52.5 28.5,-52.5 28.5,-52.5 22.5,-52.5 16.5,-46.5 16.5,-40.5 16.5,-40.5 16.5,-28.5 16.5,-28.5 16.5,-22.5 22.5,-16.5 28.5,-16.5"/>
<text text-anchor="middle" x="61" y="-31.4" font-family="Microsoft YaHei" font-size="12.00">数据库管理器</text>
</g>
<!-- mod_dev -->
<g id="node6" class="node">
<title>mod_dev</title>
<polygon fill="#76ee00" stroke="#76ee00" points="177.5,-195.5 177.5,-231.5 266.5,-231.5 266.5,-195.5 177.5,-195.5"/>
<text text-anchor="middle" x="222" y="-210.4" font-family="Microsoft YaHei" font-size="12.00">开发支持模块</text>
</g>
<!-- mod_dm -->
<g id="node7" class="node">
<title>mod_dm</title>
<polygon fill="#76ee00" stroke="#76ee00" points="212.5,-109.5 212.5,-145.5 301.5,-145.5 301.5,-109.5 212.5,-109.5"/>
<text text-anchor="middle" x="257" y="-124.4" font-family="Microsoft YaHei" font-size="12.00">数据建模模块</text>
</g>
<!-- mod_dev&#45;&gt;mod_dm -->
<g id="edge3" class="edge">
<title>mod_dev&#45;&gt;mod_dm</title>
<path fill="none" stroke="black" d="M229.25,-195.1C234.07,-183.53 240.49,-168.12 245.94,-155.04"/>
<polygon fill="black" stroke="black" points="249.26,-156.17 249.88,-145.6 242.8,-153.48 249.26,-156.17"/>
<text text-anchor="middle" x="258" y="-167.4" font-family="Microsoft YaHei" font-size="12.00">依赖...</text>
</g>
<!-- mod_dm&#45;&gt;module_mgr -->
<g id="edge4" class="edge">
<title>mod_dm&#45;&gt;module_mgr</title>
<path fill="none" stroke="black" d="M257,-109.38C257,-96.29 257,-77.98 257,-62.86"/>
<polygon fill="black" stroke="black" points="260.5,-62.54 257,-52.54 253.5,-62.54 260.5,-62.54"/>
</g>
<!-- mod_dp -->
<g id="node8" class="node">
<title>mod_dp</title>
<polygon fill="#76ee00" stroke="#76ee00" points="212.5,-281.5 212.5,-317.5 301.5,-317.5 301.5,-281.5 212.5,-281.5"/>
<text text-anchor="middle" x="257" y="-296.4" font-family="Microsoft YaHei" font-size="12.00">部署发布模块</text>
</g>
<!-- mod_dp&#45;&gt;mod_dev -->
<g id="edge1" class="edge">
<title>mod_dp&#45;&gt;mod_dev</title>
<path fill="none" stroke="black" d="M249.75,-281.1C244.93,-269.53 238.51,-254.12 233.06,-241.04"/>
<polygon fill="black" stroke="black" points="236.2,-239.48 229.12,-231.6 229.74,-242.17 236.2,-239.48"/>
<text text-anchor="middle" x="258" y="-253.4" font-family="Microsoft YaHei" font-size="12.00">依赖...</text>
</g>
<!-- mod_dp&#45;&gt;mod_dm -->
<g id="edge2" class="edge">
<title>mod_dp&#45;&gt;mod_dm</title>
<path fill="none" stroke="black" d="M270.27,-281.36C273.82,-275.8 277.17,-269.42 279,-263 291.05,-220.68 291.05,-206.32 279,-164 278.09,-160.79 276.79,-157.59 275.28,-154.5"/>
<polygon fill="black" stroke="black" points="278.24,-152.62 270.27,-145.64 272.15,-156.07 278.24,-152.62"/>
<text text-anchor="middle" x="305" y="-210.4" font-family="Microsoft YaHei" font-size="12.00">依赖...</text>
</g>
</g>
</svg>
